<svg width="7.4083mm" height="5.2917mm" version="1.1" viewBox="0 0 7.4083 5.2917" xmlns="http://www.w3.org/2000/svg">
 <g transform="translate(-131.61 -178.78)">
  <path d="m132.14 179.84h6.35c0.2921 0 0.52916-0.23707 0.52916-0.52917s-0.23706-0.52916-0.52916-0.52916h-6.35c-0.2921 0-0.52917 0.23706-0.52917 0.52916s0.23707 0.52917 0.52917 0.52917zm6.35 1.0583h-6.35c-0.2921 0-0.52917 0.23707-0.52917 0.52917s0.23707 0.52917 0.52917 0.52917h6.35c0.2921 0 0.52916-0.23707 0.52916-0.52917s-0.23706-0.52917-0.52916-0.52917zm0 2.1167h-6.35c-0.2921 0-0.52917 0.23707-0.52917 0.52917s0.23707 0.52916 0.52917 0.52916h6.35c0.2921 0 0.52916-0.23706 0.52916-0.52916s-0.23706-0.52917-0.52916-0.52917z" fill="#fff" stroke-width=".26458"/>
 </g>
</svg>
